<svg width="200" height="200" viewBox="0 0 200 200" fill="none" xmlns="http://www.w3.org/2000/svg">
<circle cx="100" cy="100" r="100" fill="#DAE3EA"/>
<path fill-rule="evenodd" clip-rule="evenodd" d="M119.048 80.9524C119.048 91.4762 110.524 100 100 100C89.4762 100 80.9523 91.4762 80.9523 80.9524C80.9523 70.4286 89.4762 61.9048 100 61.9048C110.524 61.9048 119.048 70.4286 119.048 80.9524ZM61.9047 128.571C61.9047 115.905 87.2857 109.524 100 109.524C112.714 109.524 138.095 115.905 138.095 128.571V133.333C138.095 135.952 135.952 138.095 133.333 138.095H66.6666C64.0476 138.095 61.9047 135.952 61.9047 133.333V128.571Z" fill="#94A3B1"/>
</svg>
