<svg width="47" height="13" viewBox="0 0 47 13" fill="none" xmlns="http://www.w3.org/2000/svg">
<path d="M3.408 2.784H0.24V0.799999H8.624V2.784H5.456V12H3.408V2.784ZM16.6556 9.344H12.5756L11.6476 12H9.66363L13.6476 0.799999H15.5836L19.5676 12H17.5836L16.6556 9.344ZM16.0156 7.552L14.6236 3.552L13.2156 7.552H16.0156ZM25.6956 12.224C25.0663 12.224 24.389 12.1387 23.6636 11.968C22.949 11.7973 22.389 11.6107 21.9836 11.408L22.2236 9.232C23.6316 9.91467 24.869 10.256 25.9356 10.256C26.501 10.256 26.9436 10.1493 27.2636 9.936C27.5836 9.712 27.7436 9.38667 27.7436 8.96C27.7436 8.64 27.653 8.37867 27.4716 8.176C27.301 7.96267 27.0503 7.78667 26.7196 7.648C26.389 7.49867 25.861 7.296 25.1356 7.04C24.453 6.80533 23.8876 6.56 23.4396 6.304C22.9916 6.03733 22.6343 5.70133 22.3676 5.296C22.1116 4.88 21.9836 4.37333 21.9836 3.776C21.9836 2.816 22.3356 2.04267 23.0396 1.456C23.7436 0.869333 24.7516 0.575999 26.0636 0.575999C26.6823 0.575999 27.2956 0.645333 27.9036 0.783999C28.5223 0.922666 29.0876 1.09333 29.5996 1.296L29.3916 3.392C28.7303 3.104 28.1223 2.89067 27.5676 2.752C27.0236 2.60267 26.4796 2.528 25.9356 2.528C25.3276 2.528 24.8636 2.62933 24.5436 2.832C24.2236 3.03467 24.0636 3.328 24.0636 3.712C24.0636 4.01067 24.149 4.256 24.3196 4.448C24.4903 4.64 24.7196 4.8 25.0076 4.928C25.3063 5.056 25.7436 5.21067 26.3196 5.392C27.6103 5.79733 28.549 6.26667 29.1356 6.8C29.733 7.32267 30.0316 8.04267 30.0316 8.96C30.0316 9.83467 29.7276 10.5973 29.1196 11.248C28.5116 11.8987 27.3703 12.224 25.6956 12.224ZM33.3289 0.799999H35.3769V12H33.3289V0.799999ZM35.5369 6.08L39.6809 0.799999H42.0809L37.9049 6.08L42.0809 12H39.6809L35.5369 6.08Z" fill="#FFF8F0"/>
<path d="M44.4641 9.824H46.5441V12H44.4641V9.824Z" fill="#F65A18"/>
</svg>
