<svg width="255" height="114" viewBox="0 0 255 114" fill="none" xmlns="http://www.w3.org/2000/svg">
<path d="M18.318 33.464H1.29V22.8H46.354V33.464H29.326V83H18.318V33.464ZM89.524 68.724H67.594L62.606 83H51.942L73.356 22.8H83.762L105.176 83H94.512L89.524 68.724ZM86.084 59.092L78.602 37.592L71.034 59.092H86.084ZM138.114 84.204C134.731 84.204 131.091 83.7453 127.192 82.828C123.351 81.9107 120.341 80.9073 118.162 79.818L119.452 68.122C127.02 71.7913 133.671 73.626 139.404 73.626C142.443 73.626 144.822 73.0527 146.542 71.906C148.262 70.702 149.122 68.9533 149.122 66.66C149.122 64.94 148.635 63.5353 147.66 62.446C146.743 61.2993 145.395 60.3533 143.618 59.608C141.841 58.8053 139.003 57.716 135.104 56.34C131.435 55.0787 128.396 53.76 125.988 52.384C123.58 50.9507 121.659 49.1447 120.226 46.966C118.85 44.73 118.162 42.0067 118.162 38.796C118.162 33.636 120.054 29.4793 123.838 26.326C127.622 23.1727 133.04 21.596 140.092 21.596C143.417 21.596 146.714 21.9687 149.982 22.714C153.307 23.4593 156.346 24.3767 159.098 25.466L157.98 36.732C154.425 35.184 151.157 34.0373 148.176 33.292C145.252 32.4893 142.328 32.088 139.404 32.088C136.136 32.088 133.642 32.6327 131.922 33.722C130.202 34.8113 129.342 36.388 129.342 38.452C129.342 40.0573 129.801 41.376 130.718 42.408C131.635 43.44 132.868 44.3 134.416 44.988C136.021 45.676 138.372 46.5073 141.468 47.482C148.405 49.6607 153.451 52.1833 156.604 55.05C159.815 57.8593 161.42 61.7293 161.42 66.66C161.42 71.3613 159.786 75.4607 156.518 78.958C153.25 82.4553 147.115 84.204 138.114 84.204ZM179.143 22.8H190.151V83H179.143V22.8ZM191.011 51.18L213.285 22.8H226.185L203.739 51.18L226.185 83H213.285L191.011 51.18Z" fill="#FFF8F0"/>
<path d="M238.995 71.304H250.175V83H238.995V71.304Z" fill="#F65A18"/>
<path d="M14.388 106.052V110H12.582V106.052L8.53603 100.032H10.594L13.478 104.54L16.376 100.032H18.434L14.388 106.052ZM20.9373 110.112C20.2186 110.112 19.584 109.963 19.0333 109.664C18.492 109.365 18.072 108.941 17.7733 108.39C17.484 107.83 17.3393 107.177 17.3393 106.43C17.3393 105.683 17.484 105.035 17.7733 104.484C18.072 103.924 18.492 103.495 19.0333 103.196C19.584 102.897 20.2186 102.748 20.9373 102.748C21.6466 102.748 22.272 102.897 22.8133 103.196C23.3546 103.495 23.77 103.924 24.0593 104.484C24.358 105.035 24.5073 105.683 24.5073 106.43C24.5073 107.177 24.358 107.83 24.0593 108.39C23.77 108.941 23.3546 109.365 22.8133 109.664C22.272 109.963 21.6466 110.112 20.9373 110.112ZM20.9233 108.74C21.5206 108.74 21.9733 108.549 22.2813 108.166C22.5986 107.774 22.7573 107.195 22.7573 106.43C22.7573 105.674 22.5986 105.1 22.2813 104.708C21.964 104.307 21.516 104.106 20.9373 104.106C20.3493 104.106 19.8966 104.307 19.5793 104.708C19.262 105.1 19.1033 105.674 19.1033 106.43C19.1033 107.195 19.2573 107.774 19.5653 108.166C19.8826 108.549 20.3353 108.74 20.9233 108.74ZM32.4565 102.93V110H30.7485V108.908C30.5245 109.3 30.2258 109.599 29.8525 109.804C29.4791 110.009 29.0498 110.112 28.5645 110.112C26.8378 110.112 25.9745 109.141 25.9745 107.2V102.93H27.7105V107.214C27.7105 107.727 27.8131 108.105 28.0185 108.348C28.2331 108.591 28.5598 108.712 28.9985 108.712C29.5118 108.712 29.9225 108.544 30.2305 108.208C30.5385 107.872 30.6925 107.424 30.6925 106.864V102.93H32.4565ZM38.1643 102.762C38.435 102.762 38.6683 102.799 38.8643 102.874L38.8503 104.47C38.5516 104.349 38.2436 104.288 37.9263 104.288C37.329 104.288 36.8716 104.461 36.5543 104.806C36.2463 105.151 36.0923 105.609 36.0923 106.178V110H34.3563V104.932C34.3563 104.185 34.319 103.518 34.2443 102.93H35.8823L36.0223 104.176C36.1996 103.719 36.4796 103.369 36.8623 103.126C37.245 102.883 37.679 102.762 38.1643 102.762ZM49.8685 106.556H44.9965C45.0338 107.312 45.2205 107.872 45.5565 108.236C45.9018 108.591 46.4105 108.768 47.0825 108.768C47.8572 108.768 48.5758 108.516 49.2385 108.012L49.7425 109.216C49.4065 109.487 48.9912 109.706 48.4965 109.874C48.0112 110.033 47.5165 110.112 47.0125 110.112C45.8552 110.112 44.9452 109.785 44.2825 109.132C43.6198 108.479 43.2885 107.583 43.2885 106.444C43.2885 105.725 43.4332 105.086 43.7225 104.526C44.0118 103.966 44.4178 103.532 44.9405 103.224C45.4632 102.907 46.0558 102.748 46.7185 102.748C47.6892 102.748 48.4545 103.065 49.0145 103.7C49.5838 104.325 49.8685 105.189 49.8685 106.29V106.556ZM46.7605 104.008C46.2938 104.008 45.9112 104.148 45.6125 104.428C45.3232 104.699 45.1365 105.095 45.0525 105.618H48.3425C48.2865 105.086 48.1232 104.685 47.8525 104.414C47.5912 104.143 47.2272 104.008 46.7605 104.008ZM58.1124 102.93V110H56.3904V108.866C56.1758 109.258 55.8678 109.566 55.4664 109.79C55.0651 110.005 54.6078 110.112 54.0944 110.112C53.4784 110.112 52.9324 109.963 52.4564 109.664C51.9804 109.365 51.6118 108.941 51.3504 108.39C51.0891 107.839 50.9584 107.2 50.9584 106.472C50.9584 105.744 51.0891 105.1 51.3504 104.54C51.6211 103.971 51.9944 103.532 52.4704 103.224C52.9464 102.907 53.4878 102.748 54.0944 102.748C54.6078 102.748 55.0651 102.86 55.4664 103.084C55.8678 103.299 56.1758 103.602 56.3904 103.994V102.93H58.1124ZM54.5704 108.74C55.1491 108.74 55.5971 108.539 55.9144 108.138C56.2318 107.737 56.3904 107.172 56.3904 106.444C56.3904 105.697 56.2318 105.123 55.9144 104.722C55.5971 104.321 55.1444 104.12 54.5564 104.12C53.9778 104.12 53.5251 104.33 53.1984 104.75C52.8811 105.161 52.7224 105.735 52.7224 106.472C52.7224 107.2 52.8811 107.76 53.1984 108.152C53.5251 108.544 53.9824 108.74 54.5704 108.74ZM62.6084 110.112C61.3297 110.112 60.3124 109.813 59.5564 109.216L60.0464 107.984C60.8024 108.544 61.6657 108.824 62.6364 108.824C63.0564 108.824 63.3784 108.754 63.6024 108.614C63.8357 108.474 63.9524 108.278 63.9524 108.026C63.9524 107.811 63.8731 107.643 63.7144 107.522C63.5557 107.391 63.2851 107.279 62.9024 107.186L61.7264 106.92C60.4384 106.64 59.7944 105.982 59.7944 104.946C59.7944 104.517 59.9157 104.139 60.1584 103.812C60.4011 103.476 60.7417 103.215 61.1804 103.028C61.6191 102.841 62.1277 102.748 62.7064 102.748C63.2104 102.748 63.6957 102.827 64.1624 102.986C64.6291 103.135 65.0397 103.355 65.3944 103.644L64.8764 104.834C64.1671 104.311 63.4391 104.05 62.6924 104.05C62.2911 104.05 61.9784 104.125 61.7544 104.274C61.5304 104.423 61.4184 104.629 61.4184 104.89C61.4184 105.095 61.4837 105.259 61.6144 105.38C61.7544 105.501 61.9877 105.604 62.3144 105.688L63.5184 105.954C64.2184 106.113 64.7271 106.36 65.0444 106.696C65.3711 107.023 65.5344 107.452 65.5344 107.984C65.5344 108.637 65.2731 109.155 64.7504 109.538C64.2277 109.921 63.5137 110.112 62.6084 110.112ZM73.6284 102.93L70.3384 110.476C69.965 111.353 69.489 111.993 68.9104 112.394C68.3317 112.795 67.6177 113.061 66.7684 113.192L66.3764 111.848C67.039 111.699 67.5337 111.507 67.8604 111.274C68.1964 111.05 68.467 110.714 68.6724 110.266L68.8964 109.748L65.9564 102.93H67.7904L69.8204 108.012L71.8924 102.93H73.6284ZM85.1417 102.93V110H83.4197V108.866C83.2051 109.258 82.8971 109.566 82.4957 109.79C82.0944 110.005 81.6371 110.112 81.1237 110.112C80.5077 110.112 79.9617 109.963 79.4857 109.664C79.0097 109.365 78.6411 108.941 78.3797 108.39C78.1184 107.839 77.9877 107.2 77.9877 106.472C77.9877 105.744 78.1184 105.1 78.3797 104.54C78.6504 103.971 79.0237 103.532 79.4997 103.224C79.9757 102.907 80.5171 102.748 81.1237 102.748C81.6371 102.748 82.0944 102.86 82.4957 103.084C82.8971 103.299 83.2051 103.602 83.4197 103.994V102.93H85.1417ZM81.5997 108.74C82.1784 108.74 82.6264 108.539 82.9437 108.138C83.2611 107.737 83.4197 107.172 83.4197 106.444C83.4197 105.697 83.2611 105.123 82.9437 104.722C82.6264 104.321 82.1737 104.12 81.5857 104.12C81.0071 104.12 80.5544 104.33 80.2277 104.75C79.9104 105.161 79.7517 105.735 79.7517 106.472C79.7517 107.2 79.9104 107.76 80.2277 108.152C80.5544 108.544 81.0117 108.74 81.5997 108.74ZM91.0937 102.748C92.783 102.748 93.6277 103.719 93.6277 105.66V110H91.8777V105.744C91.8777 105.184 91.7704 104.778 91.5557 104.526C91.341 104.265 91.0097 104.134 90.5617 104.134C90.0297 104.134 89.6004 104.307 89.2737 104.652C88.947 104.988 88.7837 105.436 88.7837 105.996V110H87.0477V104.932C87.0477 104.185 87.0104 103.518 86.9357 102.93H88.5737L88.6997 104.092C88.9424 103.663 89.269 103.331 89.6797 103.098C90.0997 102.865 90.571 102.748 91.0937 102.748ZM102.245 99.696V110H100.523V108.866C100.309 109.258 100.001 109.566 99.5993 109.79C99.1979 110.005 98.7406 110.112 98.2272 110.112C97.6206 110.112 97.0793 109.958 96.6033 109.65C96.1273 109.342 95.7539 108.908 95.4833 108.348C95.2219 107.779 95.0913 107.13 95.0913 106.402C95.0913 105.674 95.2219 105.035 95.4833 104.484C95.7446 103.933 96.1133 103.509 96.5892 103.21C97.0653 102.902 97.6113 102.748 98.2272 102.748C98.7313 102.748 99.1793 102.855 99.5713 103.07C99.9726 103.275 100.281 103.569 100.495 103.952V99.696H102.245ZM98.6893 108.74C99.2679 108.74 99.7159 108.539 100.033 108.138C100.36 107.737 100.523 107.167 100.523 106.43C100.523 105.693 100.365 105.123 100.047 104.722C99.7299 104.321 99.2819 104.12 98.7033 104.12C98.1153 104.12 97.6579 104.321 97.3313 104.722C97.0139 105.114 96.8553 105.674 96.8553 106.402C96.8553 107.139 97.0139 107.713 97.3313 108.124C97.6579 108.535 98.1106 108.74 98.6893 108.74ZM110.583 110.112C109.304 110.112 108.287 109.813 107.531 109.216L108.021 107.984C108.777 108.544 109.64 108.824 110.611 108.824C111.031 108.824 111.353 108.754 111.577 108.614C111.81 108.474 111.927 108.278 111.927 108.026C111.927 107.811 111.848 107.643 111.689 107.522C111.53 107.391 111.26 107.279 110.877 107.186L109.701 106.92C108.413 106.64 107.769 105.982 107.769 104.946C107.769 104.517 107.89 104.139 108.133 103.812C108.376 103.476 108.716 103.215 109.155 103.028C109.594 102.841 110.102 102.748 110.681 102.748C111.185 102.748 111.67 102.827 112.137 102.986C112.604 103.135 113.014 103.355 113.369 103.644L112.851 104.834C112.142 104.311 111.414 104.05 110.667 104.05C110.266 104.05 109.953 104.125 109.729 104.274C109.505 104.423 109.393 104.629 109.393 104.89C109.393 105.095 109.458 105.259 109.589 105.38C109.729 105.501 109.962 105.604 110.289 105.688L111.493 105.954C112.193 106.113 112.702 106.36 113.019 106.696C113.346 107.023 113.509 107.452 113.509 107.984C113.509 108.637 113.248 109.155 112.725 109.538C112.202 109.921 111.488 110.112 110.583 110.112ZM115.007 102.93H116.743V110H115.007V102.93ZM116.841 99.724V101.446H114.895V99.724H116.841ZM127.001 102.748C127.804 102.748 128.401 102.991 128.793 103.476C129.185 103.952 129.381 104.68 129.381 105.66V110H127.631V105.716C127.631 105.156 127.538 104.755 127.351 104.512C127.174 104.26 126.875 104.134 126.455 104.134C125.97 104.134 125.587 104.307 125.307 104.652C125.036 104.988 124.901 105.455 124.901 106.052V110H123.151V105.716C123.151 105.165 123.053 104.764 122.857 104.512C122.67 104.26 122.372 104.134 121.961 104.134C121.476 104.134 121.093 104.307 120.813 104.652C120.533 104.988 120.393 105.455 120.393 106.052V110H118.657V104.932C118.657 104.185 118.62 103.518 118.545 102.93H120.183L120.309 104.05C120.514 103.63 120.808 103.308 121.191 103.084C121.583 102.86 122.031 102.748 122.535 102.748C123.618 102.748 124.322 103.196 124.649 104.092C124.873 103.672 125.19 103.345 125.601 103.112C126.021 102.869 126.488 102.748 127.001 102.748ZM135.281 102.748C135.888 102.748 136.424 102.907 136.891 103.224C137.367 103.532 137.736 103.971 137.997 104.54C138.268 105.1 138.403 105.744 138.403 106.472C138.403 107.2 138.272 107.839 138.011 108.39C137.75 108.941 137.381 109.365 136.905 109.664C136.438 109.963 135.897 110.112 135.281 110.112C134.768 110.112 134.31 110.005 133.909 109.79C133.508 109.566 133.2 109.258 132.985 108.866V113.024H131.249V104.932C131.249 104.185 131.212 103.518 131.137 102.93H132.775L132.915 104.148C133.102 103.709 133.405 103.369 133.825 103.126C134.245 102.874 134.73 102.748 135.281 102.748ZM134.805 108.74C135.393 108.74 135.846 108.544 136.163 108.152C136.48 107.76 136.639 107.2 136.639 106.472C136.639 105.735 136.48 105.161 136.163 104.75C135.846 104.33 135.398 104.12 134.819 104.12C134.222 104.12 133.764 104.321 133.447 104.722C133.13 105.123 132.971 105.697 132.971 106.444C132.971 107.181 133.13 107.751 133.447 108.152C133.764 108.544 134.217 108.74 134.805 108.74ZM139.931 99.696H141.667V110H139.931V99.696ZM149.769 106.556H144.897C144.934 107.312 145.121 107.872 145.457 108.236C145.802 108.591 146.311 108.768 146.983 108.768C147.758 108.768 148.476 108.516 149.139 108.012L149.643 109.216C149.307 109.487 148.892 109.706 148.397 109.874C147.912 110.033 147.417 110.112 146.913 110.112C145.756 110.112 144.846 109.785 144.183 109.132C143.52 108.479 143.189 107.583 143.189 106.444C143.189 105.725 143.334 105.086 143.623 104.526C143.912 103.966 144.318 103.532 144.841 103.224C145.364 102.907 145.956 102.748 146.619 102.748C147.59 102.748 148.355 103.065 148.915 103.7C149.484 104.325 149.769 105.189 149.769 106.29V106.556ZM146.661 104.008C146.194 104.008 145.812 104.148 145.513 104.428C145.224 104.699 145.037 105.095 144.953 105.618H148.243C148.187 105.086 148.024 104.685 147.753 104.414C147.492 104.143 147.128 104.008 146.661 104.008ZM157.319 104.246V107.41C157.319 108.241 157.706 108.656 158.481 108.656C158.695 108.656 158.929 108.619 159.181 108.544V109.93C158.873 110.042 158.499 110.098 158.061 110.098C157.258 110.098 156.642 109.874 156.213 109.426C155.783 108.978 155.569 108.334 155.569 107.494V104.246H154.211V102.93H155.569V101.208L157.319 100.62V102.93H159.195V104.246H157.319ZM167.159 102.93V110H165.437V108.866C165.223 109.258 164.915 109.566 164.513 109.79C164.112 110.005 163.655 110.112 163.141 110.112C162.525 110.112 161.979 109.963 161.503 109.664C161.027 109.365 160.659 108.941 160.397 108.39C160.136 107.839 160.005 107.2 160.005 106.472C160.005 105.744 160.136 105.1 160.397 104.54C160.668 103.971 161.041 103.532 161.517 103.224C161.993 102.907 162.535 102.748 163.141 102.748C163.655 102.748 164.112 102.86 164.513 103.084C164.915 103.299 165.223 103.602 165.437 103.994V102.93H167.159ZM163.617 108.74C164.196 108.74 164.644 108.539 164.961 108.138C165.279 107.737 165.437 107.172 165.437 106.444C165.437 105.697 165.279 105.123 164.961 104.722C164.644 104.321 164.191 104.12 163.603 104.12C163.025 104.12 162.572 104.33 162.245 104.75C161.928 105.161 161.769 105.735 161.769 106.472C161.769 107.2 161.928 107.76 162.245 108.152C162.572 108.544 163.029 108.74 163.617 108.74ZM171.655 110.112C170.377 110.112 169.359 109.813 168.603 109.216L169.093 107.984C169.849 108.544 170.713 108.824 171.683 108.824C172.103 108.824 172.425 108.754 172.649 108.614C172.883 108.474 172.999 108.278 172.999 108.026C172.999 107.811 172.92 107.643 172.761 107.522C172.603 107.391 172.332 107.279 171.949 107.186L170.773 106.92C169.485 106.64 168.841 105.982 168.841 104.946C168.841 104.517 168.963 104.139 169.205 103.812C169.448 103.476 169.789 103.215 170.227 103.028C170.666 102.841 171.175 102.748 171.753 102.748C172.257 102.748 172.743 102.827 173.209 102.986C173.676 103.135 174.087 103.355 174.441 103.644L173.923 104.834C173.214 104.311 172.486 104.05 171.739 104.05C171.338 104.05 171.025 104.125 170.801 104.274C170.577 104.423 170.465 104.629 170.465 104.89C170.465 105.095 170.531 105.259 170.661 105.38C170.801 105.501 171.035 105.604 171.361 105.688L172.565 105.954C173.265 106.113 173.774 106.36 174.091 106.696C174.418 107.023 174.581 107.452 174.581 107.984C174.581 108.637 174.32 109.155 173.797 109.538C173.275 109.921 172.561 110.112 171.655 110.112ZM180.909 110L177.815 106.738V110H176.079V99.696H177.815V106.052L180.727 102.944H182.841L179.663 106.318L183.093 110H180.909ZM195.976 102.748C196.778 102.748 197.376 102.991 197.768 103.476C198.16 103.952 198.356 104.68 198.356 105.66V110H196.606V105.716C196.606 105.156 196.512 104.755 196.326 104.512C196.148 104.26 195.85 104.134 195.43 104.134C194.944 104.134 194.562 104.307 194.282 104.652C194.011 104.988 193.876 105.455 193.876 106.052V110H192.126V105.716C192.126 105.165 192.028 104.764 191.832 104.512C191.645 104.26 191.346 104.134 190.936 104.134C190.45 104.134 190.068 104.307 189.788 104.652C189.508 104.988 189.368 105.455 189.368 106.052V110H187.632V104.932C187.632 104.185 187.594 103.518 187.52 102.93H189.158L189.284 104.05C189.489 103.63 189.783 103.308 190.166 103.084C190.558 102.86 191.006 102.748 191.51 102.748C192.592 102.748 193.297 103.196 193.624 104.092C193.848 103.672 194.165 103.345 194.576 103.112C194.996 102.869 195.462 102.748 195.976 102.748ZM206.985 102.93V110H205.263V108.866C205.049 109.258 204.741 109.566 204.339 109.79C203.938 110.005 203.481 110.112 202.967 110.112C202.351 110.112 201.805 109.963 201.329 109.664C200.853 109.365 200.485 108.941 200.223 108.39C199.962 107.839 199.831 107.2 199.831 106.472C199.831 105.744 199.962 105.1 200.223 104.54C200.494 103.971 200.867 103.532 201.343 103.224C201.819 102.907 202.361 102.748 202.967 102.748C203.481 102.748 203.938 102.86 204.339 103.084C204.741 103.299 205.049 103.602 205.263 103.994V102.93H206.985ZM203.443 108.74C204.022 108.74 204.47 108.539 204.787 108.138C205.105 107.737 205.263 107.172 205.263 106.444C205.263 105.697 205.105 105.123 204.787 104.722C204.47 104.321 204.017 104.12 203.429 104.12C202.851 104.12 202.398 104.33 202.071 104.75C201.754 105.161 201.595 105.735 201.595 106.472C201.595 107.2 201.754 107.76 202.071 108.152C202.398 108.544 202.855 108.74 203.443 108.74ZM212.937 102.748C214.627 102.748 215.471 103.719 215.471 105.66V110H213.721V105.744C213.721 105.184 213.614 104.778 213.399 104.526C213.185 104.265 212.853 104.134 212.405 104.134C211.873 104.134 211.444 104.307 211.117 104.652C210.791 104.988 210.627 105.436 210.627 105.996V110H208.891V104.932C208.891 104.185 208.854 103.518 208.779 102.93H210.417L210.543 104.092C210.786 103.663 211.113 103.331 211.523 103.098C211.943 102.865 212.415 102.748 212.937 102.748ZM224.089 102.93V110H222.367V108.866C222.152 109.258 221.844 109.566 221.443 109.79C221.042 110.005 220.584 110.112 220.071 110.112C219.455 110.112 218.909 109.963 218.433 109.664C217.957 109.365 217.588 108.941 217.327 108.39C217.066 107.839 216.935 107.2 216.935 106.472C216.935 105.744 217.066 105.1 217.327 104.54C217.598 103.971 217.971 103.532 218.447 103.224C218.923 102.907 219.464 102.748 220.071 102.748C220.584 102.748 221.042 102.86 221.443 103.084C221.844 103.299 222.152 103.602 222.367 103.994V102.93H224.089ZM220.547 108.74C221.126 108.74 221.574 108.539 221.891 108.138C222.208 107.737 222.367 107.172 222.367 106.444C222.367 105.697 222.208 105.123 221.891 104.722C221.574 104.321 221.121 104.12 220.533 104.12C219.954 104.12 219.502 104.33 219.175 104.75C218.858 105.161 218.699 105.735 218.699 106.472C218.699 107.2 218.858 107.76 219.175 108.152C219.502 108.544 219.959 108.74 220.547 108.74ZM232.827 102.93V109.776C232.827 110.877 232.524 111.713 231.917 112.282C231.31 112.851 230.419 113.136 229.243 113.136C228.151 113.136 227.19 112.907 226.359 112.45L226.639 111.12C227.498 111.568 228.352 111.792 229.201 111.792C230.461 111.792 231.091 111.167 231.091 109.916V108.516C230.876 108.899 230.564 109.211 230.153 109.454C229.742 109.687 229.28 109.804 228.767 109.804C228.151 109.804 227.6 109.659 227.115 109.37C226.639 109.071 226.266 108.656 225.995 108.124C225.734 107.583 225.603 106.967 225.603 106.276C225.603 105.585 225.734 104.974 225.995 104.442C226.266 103.901 226.639 103.485 227.115 103.196C227.6 102.897 228.151 102.748 228.767 102.748C229.29 102.748 229.752 102.86 230.153 103.084C230.564 103.299 230.876 103.602 231.091 103.994V102.93H232.827ZM229.229 108.432C229.808 108.432 230.26 108.241 230.587 107.858C230.923 107.475 231.091 106.948 231.091 106.276C231.091 105.604 230.928 105.077 230.601 104.694C230.274 104.311 229.817 104.12 229.229 104.12C228.65 104.12 228.193 104.311 227.857 104.694C227.53 105.077 227.367 105.604 227.367 106.276C227.367 106.948 227.53 107.475 227.857 107.858C228.193 108.241 228.65 108.432 229.229 108.432ZM240.906 106.556H236.034C236.071 107.312 236.258 107.872 236.594 108.236C236.939 108.591 237.448 108.768 238.12 108.768C238.894 108.768 239.613 108.516 240.276 108.012L240.78 109.216C240.444 109.487 240.028 109.706 239.534 109.874C239.048 110.033 238.554 110.112 238.05 110.112C236.892 110.112 235.982 109.785 235.32 109.132C234.657 108.479 234.326 107.583 234.326 106.444C234.326 105.725 234.47 105.086 234.76 104.526C235.049 103.966 235.455 103.532 235.978 103.224C236.5 102.907 237.093 102.748 237.756 102.748C238.726 102.748 239.492 103.065 240.052 103.7C240.621 104.325 240.906 105.189 240.906 106.29V106.556ZM237.798 104.008C237.331 104.008 236.948 104.148 236.65 104.428C236.36 104.699 236.174 105.095 236.09 105.618H239.38C239.324 105.086 239.16 104.685 238.89 104.414C238.628 104.143 238.264 104.008 237.798 104.008ZM246.196 102.762C246.466 102.762 246.7 102.799 246.896 102.874L246.882 104.47C246.583 104.349 246.275 104.288 245.958 104.288C245.36 104.288 244.903 104.461 244.586 104.806C244.278 105.151 244.124 105.609 244.124 106.178V110H242.388V104.932C242.388 104.185 242.35 103.518 242.276 102.93H243.914L244.054 104.176C244.231 103.719 244.511 103.369 244.894 103.126C245.276 102.883 245.71 102.762 246.196 102.762Z" fill="#6D7D8B"/>
</svg>
